<svg xmlns="http://www.w3.org/2000/svg" version="1.1" xmlns:xlink="http://www.w3.org/1999/xlink" width="512" height="512" x="0" y="0" viewBox="0 0 24 24" style="enable-background:new 0 0 512 512" xml:space="preserve" class=""><g><path d="M23.821 11.181a15.736 15.736 0 0 0-4.145-5.44l3.032-3.032-1.415-1.416L18 4.583A11.783 11.783 0 0 0 12 3C4.5 3 1.057 9.261.179 11.181a1.969 1.969 0 0 0 0 1.64 15.736 15.736 0 0 0 4.145 5.44l-3.031 3.032 1.414 1.414L6 19.417A11.783 11.783 0 0 0 12 21c7.5 0 10.943-6.261 11.821-8.181a1.968 1.968 0 0 0 0-1.638ZM6 12a5.99 5.99 0 0 1 9.471-4.885l-1.452 1.452A3.947 3.947 0 0 0 12 8a4 4 0 0 0-4 4 3.947 3.947 0 0 0 .567 2.019l-1.452 1.452A5.961 5.961 0 0 1 6 12Zm6 6a5.961 5.961 0 0 1-3.471-1.115l1.452-1.452A3.947 3.947 0 0 0 12 16a4 4 0 0 0 4-4 3.947 3.947 0 0 0-.567-2.019l1.452-1.452A5.99 5.99 0 0 1 12 18Z" fill="#9c9c9c   " opacity="1" data-original="#000000" class=""></path></g></svg>